<?xml version="1.0" encoding="UTF-8" standalone="no"?>
<!DOCTYPE svg PUBLIC "-//W3C//DTD SVG 1.1//EN"
 "http://www.w3.org/Graphics/SVG/1.1/DTD/svg11.dtd">
<!-- Generated by graphviz version 12.2.1 (0)
 -->
<!-- Title: G Pages: 1 -->
<svg width="512pt" height="530pt"
 viewBox="0.00 0.00 512.45 529.98" xmlns="http://www.w3.org/2000/svg" xmlns:xlink="http://www.w3.org/1999/xlink">
<g id="graph0" class="graph" transform="scale(1 1) rotate(0) translate(4 525.98)">
<title>G</title>
<!-- V0 -->
<g id="node1" class="node">
<title>V0</title>
<ellipse fill="lightblue" stroke="black" stroke-width="2" cx="150.1" cy="-220.97" rx="9" ry="9"/>
<text text-anchor="middle" x="150.1" y="-217.85" font-family="Times,serif" font-size="10.00">0</text>
</g>
<!-- V1 -->
<g id="node2" class="node">
<title>V1</title>
<ellipse fill="lightblue" stroke="black" stroke-width="2" cx="381.25" cy="-381.33" rx="9" ry="9"/>
<text text-anchor="middle" x="381.25" y="-378.21" font-family="Times,serif" font-size="10.00">1</text>
</g>
<!-- V2 -->
<g id="node3" class="node">
<title>V2</title>
<ellipse fill="lightblue" stroke="black" stroke-width="2" cx="73.67" cy="-474.04" rx="9" ry="9"/>
<text text-anchor="middle" x="73.67" y="-470.92" font-family="Times,serif" font-size="10.00">2</text>
</g>
<!-- V3 -->
<g id="node4" class="node">
<title>V3</title>
<ellipse fill="lightblue" stroke="black" stroke-width="2" cx="81.36" cy="-143.97" rx="9" ry="9"/>
<text text-anchor="middle" x="81.36" y="-140.84" font-family="Times,serif" font-size="10.00">3</text>
</g>
<!-- V4 -->
<g id="node5" class="node">
<title>V4</title>
<ellipse fill="lightblue" stroke="black" stroke-width="2" cx="196.99" cy="-9" rx="9" ry="9"/>
<text text-anchor="middle" x="196.99" y="-5.88" font-family="Times,serif" font-size="10.00">4</text>
</g>
<!-- V5 -->
<g id="node6" class="node">
<title>V5</title>
<ellipse fill="lightblue" stroke="black" stroke-width="2" cx="112.18" cy="-9" rx="9" ry="9"/>
<text text-anchor="middle" x="112.18" y="-5.88" font-family="Times,serif" font-size="10.00">5</text>
</g>
<!-- V5&#45;&#45;V4 -->
<g id="edge1" class="edge">
<title>V5&#45;&#45;V4</title>
<path fill="none" stroke="black" stroke-width="2" d="M121.91,-9C138.18,-9 170.75,-9 187.12,-9"/>
</g>
<!-- V6 -->
<g id="node7" class="node">
<title>V6</title>
<ellipse fill="lightblue" stroke="black" stroke-width="2" cx="302.79" cy="-437.21" rx="9" ry="9"/>
<text text-anchor="middle" x="302.79" y="-434.09" font-family="Times,serif" font-size="10.00">6</text>
</g>
<!-- V6&#45;&#45;V1 -->
<g id="edge2" class="edge">
<title>V6&#45;&#45;V1</title>
<path fill="none" stroke="black" stroke-width="2" d="M310.89,-431.44C326.08,-420.62 358.65,-397.42 373.54,-386.82"/>
</g>
<!-- V7 -->
<g id="node8" class="node">
<title>V7</title>
<ellipse fill="lightblue" stroke="black" stroke-width="2" cx="33.08" cy="-398.34" rx="9" ry="9"/>
<text text-anchor="middle" x="33.08" y="-395.22" font-family="Times,serif" font-size="10.00">7</text>
</g>
<!-- V7&#45;&#45;V2 -->
<g id="edge3" class="edge">
<title>V7&#45;&#45;V2</title>
<path fill="none" stroke="black" stroke-width="2" d="M37.73,-407.03C45.56,-421.63 61.27,-450.93 69.07,-465.46"/>
</g>
<!-- V8 -->
<g id="node9" class="node">
<title>V8</title>
<ellipse fill="lightblue" stroke="black" stroke-width="2" cx="445.97" cy="-229.8" rx="9" ry="9"/>
<text text-anchor="middle" x="445.97" y="-226.67" font-family="Times,serif" font-size="10.00">8</text>
</g>
<!-- V9 -->
<g id="node10" class="node">
<title>V9</title>
<ellipse fill="lightblue" stroke="black" stroke-width="2" cx="428.92" cy="-114.69" rx="9" ry="9"/>
<text text-anchor="middle" x="428.92" y="-111.57" font-family="Times,serif" font-size="10.00">9</text>
</g>
<!-- V10 -->
<g id="node11" class="node">
<title>V10</title>
<ellipse fill="lightblue" stroke="black" stroke-width="2" cx="360.6" cy="-243.42" rx="9" ry="9"/>
<text text-anchor="middle" x="360.6" y="-240.29" font-family="Times,serif" font-size="10.00">10</text>
</g>
<!-- V10&#45;&#45;V8 -->
<g id="edge4" class="edge">
<title>V10&#45;&#45;V8</title>
<path fill="none" stroke="black" stroke-width="2" d="M370.4,-241.86C386.86,-239.23 419.9,-233.96 436.29,-231.34"/>
</g>
<!-- V11 -->
<g id="node12" class="node">
<title>V11</title>
<ellipse fill="lightblue" stroke="black" stroke-width="2" cx="157.48" cy="-302.16" rx="9" ry="9"/>
<text text-anchor="middle" x="157.48" y="-299.04" font-family="Times,serif" font-size="10.00">11</text>
</g>
<!-- V11&#45;&#45;V0 -->
<g id="edge5" class="edge">
<title>V11&#45;&#45;V0</title>
<path fill="none" stroke="black" stroke-width="2" d="M156.57,-292.21C155.14,-276.45 152.37,-245.99 150.97,-230.51"/>
</g>
<!-- V12 -->
<g id="node13" class="node">
<title>V12</title>
<ellipse fill="lightblue" stroke="black" stroke-width="2" cx="231.48" cy="-336.34" rx="9" ry="9"/>
<text text-anchor="middle" x="231.48" y="-333.21" font-family="Times,serif" font-size="10.00">12</text>
</g>
<!-- V12&#45;&#45;V11 -->
<g id="edge6" class="edge">
<title>V12&#45;&#45;V11</title>
<path fill="none" stroke="black" stroke-width="2" d="M222.41,-332.15C208.05,-325.52 180.28,-312.69 166.17,-306.17"/>
</g>
<!-- V13 -->
<g id="node14" class="node">
<title>V13</title>
<ellipse fill="lightblue" stroke="black" stroke-width="2" cx="166.95" cy="-379.49" rx="9" ry="9"/>
<text text-anchor="middle" x="166.95" y="-376.37" font-family="Times,serif" font-size="10.00">13</text>
</g>
<!-- V13&#45;&#45;V11 -->
<g id="edge7" class="edge">
<title>V13&#45;&#45;V11</title>
<path fill="none" stroke="black" stroke-width="2" d="M165.75,-369.7C163.92,-354.74 160.45,-326.39 158.64,-311.63"/>
</g>
<!-- V13&#45;&#45;V12 -->
<g id="edge8" class="edge">
<title>V13&#45;&#45;V12</title>
<path fill="none" stroke="black" stroke-width="2" d="M175.13,-374.03C187.47,-365.77 210.75,-350.21 223.17,-341.9"/>
</g>
<!-- V14 -->
<g id="node15" class="node">
<title>V14</title>
<ellipse fill="lightblue" stroke="black" stroke-width="2" cx="290.87" cy="-211.23" rx="9" ry="9"/>
<text text-anchor="middle" x="290.87" y="-208.1" font-family="Times,serif" font-size="10.00">14</text>
</g>
<!-- V14&#45;&#45;V10 -->
<g id="edge9" class="edge">
<title>V14&#45;&#45;V10</title>
<path fill="none" stroke="black" stroke-width="2" d="M299.7,-215.31C313.04,-221.46 338.2,-233.08 351.62,-239.27"/>
</g>
<!-- V15 -->
<g id="node16" class="node">
<title>V15</title>
<ellipse fill="lightblue" stroke="black" stroke-width="2" cx="299.78" cy="-291.8" rx="9" ry="9"/>
<text text-anchor="middle" x="299.78" y="-288.68" font-family="Times,serif" font-size="10.00">15</text>
</g>
<!-- V15&#45;&#45;V10 -->
<g id="edge10" class="edge">
<title>V15&#45;&#45;V10</title>
<path fill="none" stroke="black" stroke-width="2" d="M307.48,-285.67C319.25,-276.32 341.54,-258.58 353.15,-249.35"/>
</g>
<!-- V15&#45;&#45;V12 -->
<g id="edge11" class="edge">
<title>V15&#45;&#45;V12</title>
<path fill="none" stroke="black" stroke-width="2" d="M291.41,-297.26C278.15,-305.9 252.52,-322.62 239.5,-331.11"/>
</g>
<!-- V15&#45;&#45;V14 -->
<g id="edge12" class="edge">
<title>V15&#45;&#45;V14</title>
<path fill="none" stroke="black" stroke-width="2" d="M298.69,-281.92C296.96,-266.29 293.62,-236.05 291.92,-220.69"/>
</g>
<!-- V16 -->
<g id="node17" class="node">
<title>V16</title>
<ellipse fill="lightblue" stroke="black" stroke-width="2" cx="390.93" cy="-175.71" rx="9" ry="9"/>
<text text-anchor="middle" x="390.93" y="-172.59" font-family="Times,serif" font-size="10.00">16</text>
</g>
<!-- V16&#45;&#45;V9 -->
<g id="edge13" class="edge">
<title>V16&#45;&#45;V9</title>
<path fill="none" stroke="black" stroke-width="2" d="M396.21,-167.23C403.47,-155.57 416.45,-134.72 423.68,-123.1"/>
</g>
<!-- V17 -->
<g id="node18" class="node">
<title>V17</title>
<ellipse fill="lightblue" stroke="black" stroke-width="2" cx="351.59" cy="-91.93" rx="9" ry="9"/>
<text text-anchor="middle" x="351.59" y="-88.8" font-family="Times,serif" font-size="10.00">17</text>
</g>
<!-- V17&#45;&#45;V9 -->
<g id="edge14" class="edge">
<title>V17&#45;&#45;V9</title>
<path fill="none" stroke="black" stroke-width="2" d="M361.07,-94.72C375.91,-99.09 404.47,-107.5 419.36,-111.88"/>
</g>
<!-- V17&#45;&#45;V16 -->
<g id="edge15" class="edge">
<title>V17&#45;&#45;V16</title>
<path fill="none" stroke="black" stroke-width="2" d="M355.8,-100.9C363.37,-117.02 379.2,-150.73 386.75,-166.81"/>
</g>
<!-- V18 -->
<g id="node19" class="node">
<title>V18</title>
<ellipse fill="lightblue" stroke="black" stroke-width="2" cx="495.45" cy="-269.38" rx="9" ry="9"/>
<text text-anchor="middle" x="495.45" y="-266.26" font-family="Times,serif" font-size="10.00">18</text>
</g>
<!-- V18&#45;&#45;V8 -->
<g id="edge16" class="edge">
<title>V18&#45;&#45;V8</title>
<path fill="none" stroke="black" stroke-width="2" d="M487.72,-263.2C478.37,-255.72 462.74,-243.21 453.48,-235.81"/>
</g>
<!-- V19 -->
<g id="node20" class="node">
<title>V19</title>
<ellipse fill="lightblue" stroke="black" stroke-width="2" cx="484.55" cy="-178.41" rx="9" ry="9"/>
<text text-anchor="middle" x="484.55" y="-175.28" font-family="Times,serif" font-size="10.00">19</text>
</g>
<!-- V19&#45;&#45;V8 -->
<g id="edge17" class="edge">
<title>V19&#45;&#45;V8</title>
<path fill="none" stroke="black" stroke-width="2" d="M478.86,-185.99C471.65,-195.6 459.28,-212.07 451.94,-221.84"/>
</g>
<!-- V19&#45;&#45;V9 -->
<g id="edge18" class="edge">
<title>V19&#45;&#45;V9</title>
<path fill="none" stroke="black" stroke-width="2" d="M478.17,-171.1C467.44,-158.81 445.91,-134.15 435.23,-121.92"/>
</g>
<!-- V19&#45;&#45;V18 -->
<g id="edge19" class="edge">
<title>V19&#45;&#45;V18</title>
<path fill="none" stroke="black" stroke-width="2" d="M485.72,-188.14C487.81,-205.66 492.2,-242.26 494.29,-259.72"/>
</g>
<!-- V20 -->
<g id="node21" class="node">
<title>V20</title>
<ellipse fill="lightblue" stroke="black" stroke-width="2" cx="103.85" cy="-381.76" rx="9" ry="9"/>
<text text-anchor="middle" x="103.85" y="-378.63" font-family="Times,serif" font-size="10.00">20</text>
</g>
<!-- V20&#45;&#45;V7 -->
<g id="edge20" class="edge">
<title>V20&#45;&#45;V7</title>
<path fill="none" stroke="black" stroke-width="2" d="M94.3,-384C80.72,-387.18 55.97,-392.98 42.47,-396.14"/>
</g>
<!-- V21 -->
<g id="node22" class="node">
<title>V21</title>
<ellipse fill="lightblue" stroke="black" stroke-width="2" cx="36.79" cy="-316.64" rx="9" ry="9"/>
<text text-anchor="middle" x="36.79" y="-313.51" font-family="Times,serif" font-size="10.00">21</text>
</g>
<!-- V21&#45;&#45;V7 -->
<g id="edge21" class="edge">
<title>V21&#45;&#45;V7</title>
<path fill="none" stroke="black" stroke-width="2" d="M36.35,-326.33C35.64,-341.97 34.25,-372.61 33.53,-388.41"/>
</g>
<!-- V21&#45;&#45;V20 -->
<g id="edge22" class="edge">
<title>V21&#45;&#45;V20</title>
<path fill="none" stroke="black" stroke-width="2" d="M43.71,-323.36C56.56,-335.84 83.96,-362.45 96.86,-374.97"/>
</g>
<!-- V22 -->
<g id="node23" class="node">
<title>V22</title>
<ellipse fill="lightblue" stroke="black" stroke-width="2" cx="209.66" cy="-429.45" rx="9" ry="9"/>
<text text-anchor="middle" x="209.66" y="-426.32" font-family="Times,serif" font-size="10.00">22</text>
</g>
<!-- V22&#45;&#45;V6 -->
<g id="edge23" class="edge">
<title>V22&#45;&#45;V6</title>
<path fill="none" stroke="black" stroke-width="2" d="M219.28,-430.25C237.13,-431.74 275.18,-434.91 293.09,-436.4"/>
</g>
<!-- V22&#45;&#45;V20 -->
<g id="edge24" class="edge">
<title>V22&#45;&#45;V20</title>
<path fill="none" stroke="black" stroke-width="2" d="M200.64,-425.38C180.65,-416.37 132.82,-394.81 112.84,-385.81"/>
</g>
<!-- V23 -->
<g id="node24" class="node">
<title>V23</title>
<ellipse fill="lightblue" stroke="black" stroke-width="2" cx="243.9" cy="-493.6" rx="9" ry="9"/>
<text text-anchor="middle" x="243.9" y="-490.48" font-family="Times,serif" font-size="10.00">23</text>
</g>
<!-- V23&#45;&#45;V6 -->
<g id="edge25" class="edge">
<title>V23&#45;&#45;V6</title>
<path fill="none" stroke="black" stroke-width="2" d="M251.12,-486.69C262.55,-475.75 284.65,-454.59 295.88,-443.83"/>
</g>
<!-- V23&#45;&#45;V22 -->
<g id="edge26" class="edge">
<title>V23&#45;&#45;V22</title>
<path fill="none" stroke="black" stroke-width="2" d="M239.28,-484.95C232.71,-472.64 220.74,-450.2 214.21,-437.96"/>
</g>
<!-- V24 -->
<g id="node25" class="node">
<title>V24</title>
<ellipse fill="lightblue" stroke="black" stroke-width="2" cx="36.86" cy="-61.35" rx="9" ry="9"/>
<text text-anchor="middle" x="36.86" y="-58.22" font-family="Times,serif" font-size="10.00">24</text>
</g>
<!-- V24&#45;&#45;V5 -->
<g id="edge27" class="edge">
<title>V24&#45;&#45;V5</title>
<path fill="none" stroke="black" stroke-width="2" d="M44.92,-55.75C59.49,-45.62 90.04,-24.39 104.4,-14.41"/>
</g>
<!-- V25 -->
<g id="node26" class="node">
<title>V25</title>
<ellipse fill="lightblue" stroke="black" stroke-width="2" cx="99.56" cy="-71.71" rx="9" ry="9"/>
<text text-anchor="middle" x="99.56" y="-68.59" font-family="Times,serif" font-size="10.00">25</text>
</g>
<!-- V25&#45;&#45;V5 -->
<g id="edge28" class="edge">
<title>V25&#45;&#45;V5</title>
<path fill="none" stroke="black" stroke-width="2" d="M101.53,-61.91C103.92,-50.06 107.91,-30.25 110.26,-18.52"/>
</g>
<!-- V25&#45;&#45;V24 -->
<g id="edge29" class="edge">
<title>V25&#45;&#45;V24</title>
<path fill="none" stroke="black" stroke-width="2" d="M89.76,-70.09C77.91,-68.13 58.11,-64.86 46.38,-62.92"/>
</g>
<!-- V26 -->
<g id="node27" class="node">
<title>V26</title>
<ellipse fill="lightblue" stroke="black" stroke-width="2" cx="175.97" cy="-77.78" rx="9" ry="9"/>
<text text-anchor="middle" x="175.97" y="-74.66" font-family="Times,serif" font-size="10.00">26</text>
</g>
<!-- V26&#45;&#45;V3 -->
<g id="edge30" class="edge">
<title>V26&#45;&#45;V3</title>
<path fill="none" stroke="black" stroke-width="2" d="M167.9,-83.42C150.03,-95.93 107.26,-125.85 89.4,-138.34"/>
</g>
<!-- V26&#45;&#45;V4 -->
<g id="edge31" class="edge">
<title>V26&#45;&#45;V4</title>
<path fill="none" stroke="black" stroke-width="2" d="M178.81,-68.51C182.84,-55.3 190.19,-31.25 194.2,-18.13"/>
</g>
<!-- V27 -->
<g id="node28" class="node">
<title>V27</title>
<ellipse fill="lightblue" stroke="black" stroke-width="2" cx="265.09" cy="-52.46" rx="9" ry="9"/>
<text text-anchor="middle" x="265.09" y="-49.33" font-family="Times,serif" font-size="10.00">27</text>
</g>
<!-- V27&#45;&#45;V4 -->
<g id="edge32" class="edge">
<title>V27&#45;&#45;V4</title>
<path fill="none" stroke="black" stroke-width="2" d="M256.74,-47.13C243.67,-38.79 218.52,-22.74 205.41,-14.37"/>
</g>
<!-- V27&#45;&#45;V17 -->
<g id="edge33" class="edge">
<title>V27&#45;&#45;V17</title>
<path fill="none" stroke="black" stroke-width="2" d="M274.02,-56.53C290.59,-64.1 325.94,-80.23 342.57,-87.82"/>
</g>
<!-- V27&#45;&#45;V26 -->
<g id="edge34" class="edge">
<title>V27&#45;&#45;V26</title>
<path fill="none" stroke="black" stroke-width="2" d="M255.55,-55.17C238.4,-60.04 202.54,-70.23 185.44,-75.09"/>
</g>
<!-- V28 -->
<g id="node29" class="node">
<title>V28</title>
<ellipse fill="lightblue" stroke="black" stroke-width="2" cx="9" cy="-141.59" rx="9" ry="9"/>
<text text-anchor="middle" x="9" y="-138.46" font-family="Times,serif" font-size="10.00">28</text>
</g>
<!-- V28&#45;&#45;V3 -->
<g id="edge35" class="edge">
<title>V28&#45;&#45;V3</title>
<path fill="none" stroke="black" stroke-width="2" d="M18.76,-141.91C32.65,-142.37 57.95,-143.2 71.75,-143.65"/>
</g>
<!-- V28&#45;&#45;V24 -->
<g id="edge36" class="edge">
<title>V28&#45;&#45;V24</title>
<path fill="none" stroke="black" stroke-width="2" d="M12.2,-132.38C17.57,-116.91 28.35,-85.85 33.7,-70.45"/>
</g>
<!-- V29 -->
<g id="node30" class="node">
<title>V29</title>
<ellipse fill="lightblue" stroke="black" stroke-width="2" cx="27.75" cy="-220.73" rx="9" ry="9"/>
<text text-anchor="middle" x="27.75" y="-217.6" font-family="Times,serif" font-size="10.00">29</text>
</g>
<!-- V29&#45;&#45;V3 -->
<g id="edge37" class="edge">
<title>V29&#45;&#45;V3</title>
<path fill="none" stroke="black" stroke-width="2" d="M33.29,-212.8C43.56,-198.09 65.46,-166.73 75.77,-151.96"/>
</g>
<!-- V29&#45;&#45;V21 -->
<g id="edge38" class="edge">
<title>V29&#45;&#45;V21</title>
<path fill="none" stroke="black" stroke-width="2" d="M28.69,-230.63C30.43,-249.1 34.15,-288.61 35.87,-306.93"/>
</g>
<!-- V29&#45;&#45;V28 -->
<g id="edge39" class="edge">
<title>V29&#45;&#45;V28</title>
<path fill="none" stroke="black" stroke-width="2" d="M25.45,-211.02C21.81,-195.67 14.78,-165.97 11.2,-150.88"/>
</g>
<!-- V30 -->
<g id="node31" class="node">
<title>V30</title>
<ellipse fill="lightblue" stroke="black" stroke-width="2" cx="160.51" cy="-512.98" rx="9" ry="9"/>
<text text-anchor="middle" x="160.51" y="-509.86" font-family="Times,serif" font-size="10.00">30</text>
</g>
<!-- V30&#45;&#45;V2 -->
<g id="edge40" class="edge">
<title>V30&#45;&#45;V2</title>
<path fill="none" stroke="black" stroke-width="2" d="M151.54,-508.96C134.9,-501.5 99.42,-485.59 82.72,-478.1"/>
</g>
<!-- V30&#45;&#45;V23 -->
<g id="edge41" class="edge">
<title>V30&#45;&#45;V23</title>
<path fill="none" stroke="black" stroke-width="2" d="M170.07,-510.76C186.07,-507.04 218.09,-499.6 234.19,-495.86"/>
</g>
<!-- V31 -->
<g id="node32" class="node">
<title>V31</title>
<ellipse fill="lightblue" stroke="black" stroke-width="2" cx="132.83" cy="-458" rx="9" ry="9"/>
<text text-anchor="middle" x="132.83" y="-454.88" font-family="Times,serif" font-size="10.00">31</text>
</g>
<!-- V31&#45;&#45;V2 -->
<g id="edge42" class="edge">
<title>V31&#45;&#45;V2</title>
<path fill="none" stroke="black" stroke-width="2" d="M123.32,-460.58C112.22,-463.59 93.97,-468.54 82.96,-471.53"/>
</g>
<!-- V31&#45;&#45;V13 -->
<g id="edge43" class="edge">
<title>V31&#45;&#45;V13</title>
<path fill="none" stroke="black" stroke-width="2" d="M136.74,-449C143.32,-433.85 156.53,-403.47 163.08,-388.39"/>
</g>
<!-- V31&#45;&#45;V30 -->
<g id="edge44" class="edge">
<title>V31&#45;&#45;V30</title>
<path fill="none" stroke="black" stroke-width="2" d="M137.15,-466.59C142.32,-476.86 150.92,-493.95 156.12,-504.27"/>
</g>
<!-- V32 -->
<g id="node33" class="node">
<title>V32</title>
<ellipse fill="lightblue" stroke="black" stroke-width="2" cx="453.36" cy="-343.37" rx="9" ry="9"/>
<text text-anchor="middle" x="453.36" y="-340.25" font-family="Times,serif" font-size="10.00">32</text>
</g>
<!-- V32&#45;&#45;V1 -->
<g id="edge45" class="edge">
<title>V32&#45;&#45;V1</title>
<path fill="none" stroke="black" stroke-width="2" d="M444.51,-348.03C430.52,-355.39 403.46,-369.64 389.71,-376.87"/>
</g>
<!-- V32&#45;&#45;V18 -->
<g id="edge46" class="edge">
<title>V32&#45;&#45;V18</title>
<path fill="none" stroke="black" stroke-width="2" d="M458.18,-334.88C466.3,-320.61 482.6,-291.98 490.68,-277.77"/>
</g>
<!-- V33 -->
<g id="node34" class="node">
<title>V33</title>
<ellipse fill="lightblue" stroke="black" stroke-width="2" cx="403.96" cy="-290.4" rx="9" ry="9"/>
<text text-anchor="middle" x="403.96" y="-287.27" font-family="Times,serif" font-size="10.00">33</text>
</g>
<!-- V33&#45;&#45;V1 -->
<g id="edge47" class="edge">
<title>V33&#45;&#45;V1</title>
<path fill="none" stroke="black" stroke-width="2" d="M401.62,-299.79C397.26,-317.21 387.98,-354.37 383.61,-371.86"/>
</g>
<!-- V33&#45;&#45;V16 -->
<g id="edge48" class="edge">
<title>V33&#45;&#45;V16</title>
<path fill="none" stroke="black" stroke-width="2" d="M402.85,-280.62C400.39,-258.95 394.5,-207.11 392.04,-185.46"/>
</g>
<!-- V33&#45;&#45;V32 -->
<g id="edge49" class="edge">
<title>V33&#45;&#45;V32</title>
<path fill="none" stroke="black" stroke-width="2" d="M410.42,-297.32C419.83,-307.42 437.24,-326.08 446.74,-336.27"/>
</g>
<!-- V34 -->
<g id="node35" class="node">
<title>V34</title>
<ellipse fill="lightblue" stroke="black" stroke-width="2" cx="217.5" cy="-175.9" rx="9" ry="9"/>
<text text-anchor="middle" x="217.5" y="-172.78" font-family="Times,serif" font-size="10.00">34</text>
</g>
<!-- V34&#45;&#45;V0 -->
<g id="edge50" class="edge">
<title>V34&#45;&#45;V0</title>
<path fill="none" stroke="black" stroke-width="2" d="M209.23,-181.43C196.16,-190.17 170.87,-207.09 158.01,-215.68"/>
</g>
<!-- V34&#45;&#45;V14 -->
<g id="edge51" class="edge">
<title>V34&#45;&#45;V14</title>
<path fill="none" stroke="black" stroke-width="2" d="M226.5,-180.24C240.73,-187.09 268.27,-200.34 282.26,-207.08"/>
</g>
<!-- V35 -->
<g id="node36" class="node">
<title>V35</title>
<ellipse fill="lightblue" stroke="black" stroke-width="2" cx="147.78" cy="-143.39" rx="9" ry="9"/>
<text text-anchor="middle" x="147.78" y="-140.27" font-family="Times,serif" font-size="10.00">35</text>
</g>
<!-- V35&#45;&#45;V0 -->
<g id="edge52" class="edge">
<title>V35&#45;&#45;V0</title>
<path fill="none" stroke="black" stroke-width="2" d="M148.08,-153.22C148.52,-168.06 149.35,-196.04 149.8,-210.98"/>
</g>
<!-- V35&#45;&#45;V25 -->
<g id="edge53" class="edge">
<title>V35&#45;&#45;V25</title>
<path fill="none" stroke="black" stroke-width="2" d="M142.25,-135.17C132.95,-121.34 114.29,-93.6 105.03,-79.84"/>
</g>
<!-- V35&#45;&#45;V34 -->
<g id="edge54" class="edge">
<title>V35&#45;&#45;V34</title>
<path fill="none" stroke="black" stroke-width="2" d="M156.61,-147.51C169.95,-153.73 195.1,-165.46 208.52,-171.72"/>
</g>
</g>
</svg>
